<svg xmlns="http://www.w3.org/2000/svg" xmlns:xlink="http://www.w3.org/1999/xlink" viewBox="0,0,256,256" width="64px" height="64px" fill-rule="nonzero"><g fill="#f57500" fill-rule="nonzero" stroke="none" stroke-width="1" stroke-linecap="butt" stroke-linejoin="miter" stroke-miterlimit="10" stroke-dasharray="" stroke-dashoffset="0" font-family="none" font-weight="none" font-size="none" text-anchor="none" style="mix-blend-mode: normal"><g transform="scale(3.2,3.2)"><path d="M40,8c-8.63672,0 -14.78906,1.78125 -18.78516,3.58984c-4,1.80469 -5.92187,3.70313 -5.92187,3.70313l-0.29297,0.29297v26.08203c0,1.58203 0.53906,3.80469 1.56641,6.48828c1.02734,2.67969 2.55859,5.76953 4.60156,8.85547c4.08203,6.16797 10.23438,12.35156 18.53516,14.94141l0.29688,0.09375l0.29688,-0.09375c8.32031,-2.59766 14.46094,-9.03516 18.54297,-15.32812c2.03906,-3.14453 3.56641,-6.26172 4.59375,-8.88672c1.02344,-2.625 1.56641,-4.67969 1.56641,-6.07031v-26.08203l-0.29297,-0.29297c0,0 -1.92187,-1.89844 -5.92187,-3.70312c-3.99609,-1.80859 -10.14844,-3.58984 -18.78516,-3.58984zM40,10c8.36328,0 14.21094,1.71875 17.96484,3.41016c3.3125,1.5 4.70313,2.75 5.03516,3.05859v25.19922c0,0.77734 -0.45703,2.84375 -1.43359,5.34375c-0.97266,2.5 -2.44531,5.50781 -4.40625,8.52734c-3.51562,5.41797 -8.60547,10.81641 -15.16016,13.60547v-9.14453h-4v9.15625c-6.56641,-2.75391 -11.65625,-7.94922 -15.16797,-13.25c-1.95703,-2.95703 -3.42578,-5.92969 -4.39844,-8.46875c-0.97266,-2.53516 -1.43359,-4.6875 -1.43359,-5.76953v-25.19922c0.33203,-0.30859 1.72266,-1.55859 5.03516,-3.05859c3.75391,-1.69141 9.60156,-3.41016 17.96484,-3.41016zM32,14c-0.55078,0 -1,0.44922 -1,1c0,0.55078 0.44922,1 1,1c0.55078,0 1,-0.44922 1,-1c0,-0.55078 -0.44922,-1 -1,-1zM36,14c-0.55078,0 -1,0.44922 -1,1c0,0.55078 0.44922,1 1,1c0.55078,0 1,-0.44922 1,-1c0,-0.55078 -0.44922,-1 -1,-1zM40,14c-0.55078,0 -1,0.44922 -1,1c0,0.55078 0.44922,1 1,1c0.55078,0 1,-0.44922 1,-1c0,-0.55078 -0.44922,-1 -1,-1zM44,14c-0.55078,0 -1,0.44922 -1,1c0,0.55078 0.44922,1 1,1c0.55078,0 1,-0.44922 1,-1c0,-0.55078 -0.44922,-1 -1,-1zM48,14c-0.55078,0 -1,0.44922 -1,1c0,0.55078 0.44922,1 1,1c0.55078,0 1,-0.44922 1,-1c0,-0.55078 -0.44922,-1 -1,-1zM28,15c-0.55078,0 -1,0.44922 -1,1c0,0.55078 0.44922,1 1,1c0.55078,0 1,-0.44922 1,-1c0,-0.55078 -0.44922,-1 -1,-1zM52,15c-0.55078,0 -1,0.44922 -1,1c0,0.55078 0.44922,1 1,1c0.55078,0 1,-0.44922 1,-1c0,-0.55078 -0.44922,-1 -1,-1zM24,16c-0.55078,0 -1,0.44922 -1,1c0,0.55078 0.44922,1 1,1c0.55078,0 1,-0.44922 1,-1c0,-0.55078 -0.44922,-1 -1,-1zM56,16c-0.55078,0 -1,0.44922 -1,1c0,0.55078 0.44922,1 1,1c0.55078,0 1,-0.44922 1,-1c0,-0.55078 -0.44922,-1 -1,-1zM21,18c-0.55078,0 -1,0.44922 -1,1c0,0.55078 0.44922,1 1,1c0.55078,0 1,-0.44922 1,-1c0,-0.55078 -0.44922,-1 -1,-1zM59,18c-0.55078,0 -1,0.44922 -1,1c0,0.55078 0.44922,1 1,1c0.55078,0 1,-0.44922 1,-1c0,-0.55078 -0.44922,-1 -1,-1zM29,24c-5,0 -8,5 -8,5c0,0 3,-2 6.66797,-2c3.58203,0 5.36719,3.86328 5.91797,4.41016c0.78125,0.78125 2.04688,0.78125 2.82813,0c0.78125,-0.77734 0.78125,-2.04297 0,-2.82422c-0.48828,-0.48437 -2.83203,-4.58594 -7.41406,-4.58594zM51,24c-4.58203,0 -6.92578,4.10156 -7.41406,4.58594c-0.78125,0.78125 -0.78125,2.04688 0,2.82422c0.78125,0.78125 2.04688,0.78125 2.82813,0c0.55078,-0.54687 2.33594,-4.41016 5.91797,-4.41016c3.66797,0 6.66797,2 6.66797,2c0,0 -3,-5 -8,-5zM28,32c-2.05078,0 -3.85156,0.79297 -5,2c1.14844,1.20703 2.94922,2 5,2c2.05078,0 3.85156,-0.79297 5,-2c-1.14844,-1.20703 -2.94922,-2 -5,-2zM52,32c-2.05078,0 -3.85156,0.79297 -5,2c1.14844,1.20703 2.94922,2 5,2c2.05078,0 3.85156,-0.79297 5,-2c-1.14844,-1.20703 -2.94922,-2 -5,-2zM21,43l7,11h9l3,-3l3,3h9l7,-11l-8,7h-6l-3,-4h-4l-3.33203,4h-5.66797z"></path></g></g></svg>